<svg viewBox="0 0 512 512" fill="none" xmlns="http://www.w3.org/2000/svg">
  <!-- Letrel — favicon / petites tailles
       Tuile papier claire + mark complet en couleurs, agrandi :
       le mark porte lui-même le contraste, lisible sur barres
       d'onglets claires comme sombres. -->
  <rect width="512" height="512" rx="116" fill="#F5F2EB"/>
  <rect x="3" y="3" width="506" height="506" rx="113" fill="none" stroke="#E2DED4" stroke-width="6"/>
  <g transform="translate(69 46) scale(0.933)">
    <path d="M72 0C52.9044 0 34.5909 7.47375 21.0883 20.7771C7.58569 34.0805 0 52.1237 0 70.9375L0 156.062C0 174.876 7.58569 192.92 21.0883 206.223C34.5909 219.526 52.9044 227 72 227H144V70.9375C144 52.1237 136.414 34.0805 122.912 20.7771C109.409 7.47375 91.0956 0 72 0Z" fill="#2A362A"/>
    <path d="M0 303.846C8.8 320.192 22.4 334.615 39.2 342.308C50.4 347.115 61.6 350 73.6 350H358.4C369.433 350 380.014 355.268 387.816 364.645C395.617 374.021 400 386.739 400 400C400 413.261 395.617 425.979 387.816 435.355C380.014 444.732 369.433 450 358.4 450H73.6C32.8 450 0 410.577 0 361.538V303.846Z" fill="#2A362A"/>
    <path d="M0 193C8.8 209.217 22.4 223.526 39.2 231.158C50.4 235.928 61.6 238.789 73.6 238.789H358.4C369.433 238.789 380.014 244.016 387.816 253.319C395.617 262.621 400 275.239 400 288.395C400 301.551 395.617 314.168 387.816 323.471C380.014 332.774 369.433 338 358.4 338H73.6C32.8 338 0 298.888 0 250.237V193Z" fill="#80927F"/>
    <path d="M341.207 123H400V175C400 188.791 394.605 202.018 385.002 211.77C375.399 221.521 362.374 227 348.793 227H290V175C290 161.209 295.395 147.982 304.998 138.23C314.601 128.479 327.626 123 341.207 123Z" fill="#9A682E"/>
  </g>
</svg>
